<svg width="239" height="109" viewBox="0 0 239 109" fill="none" xmlns="http://www.w3.org/2000/svg">
<ellipse cx="59.6094" cy="47.6875" rx="59.6094" ry="47.6875" fill="#28293D"/>
<ellipse cx="59.6094" cy="47.6875" rx="59.6094" ry="47.6875" fill="#4854FE"/>
<path d="M12.9438 76.9813L48.3688 94.6938L4.42822 106.956L12.9438 76.9813Z" fill="#4854FE"/>
<path d="M104.094 47.0064C104.094 65.8285 84.959 81.6126 60.6314 81.6126C36.3039 81.6126 17.1689 65.8285 17.1689 47.0064C17.1689 28.1843 36.3039 12.4001 60.6314 12.4001C84.959 12.4001 104.094 28.1843 104.094 47.0064Z" stroke="#3EE7BC" stroke-width="3"/>
<g filter="url(#filter0_d_402_27)">
<path d="M104.094 47.0064C104.094 65.8285 84.959 81.6126 60.6314 81.6126C36.3039 81.6126 17.1689 65.8285 17.1689 47.0064C17.1689 28.1843 36.3039 12.4001 60.6314 12.4001C84.959 12.4001 104.094 28.1843 104.094 47.0064Z" stroke="#3EE7BC" stroke-width="3" shape-rendering="crispEdges"/>
</g>
<circle cx="124.668" cy="85.8375" r="8.5375" fill="#28293D" stroke="#4854FE" stroke-width="2"/>
<g filter="url(#filter1_d_402_27)">
<path d="M31.1672 62.6751L30.6562 45.801V41.6154C30.6562 40.4453 30.8045 39.28 31.0974 38.1471V38.1471C31.8774 35.1301 34.2184 32.7649 37.2272 31.9537L37.538 31.8699C38.8326 31.5209 40.1952 31.5101 41.4952 31.8387L41.7139 31.894C46.0278 32.9843 49.05 36.8654 49.05 41.315V44.622" stroke="#3EE7BC" stroke-width="3"/>
</g>
<g filter="url(#filter2_d_402_27)">
<path d="M90.0955 62.6751L90.6064 45.8011V41.6155C90.6064 40.4454 90.4582 39.28 90.1653 38.1472V38.1472C89.3853 35.1302 87.0443 32.7649 84.0355 31.9538L83.7247 31.87C82.4301 31.5209 81.0675 31.5102 79.7675 31.8388L79.5488 31.894C75.2349 32.9844 72.2127 36.8655 72.2127 41.3151V44.622" stroke="#3EE7BC" stroke-width="3"/>
</g>
<g filter="url(#filter3_d_402_27)">
<path d="M71.5313 49.7315L70.9669 51.3944C69.6066 55.4024 66.1468 58.3337 61.9699 59.0174V59.0174C60.9519 59.1841 59.9137 59.1878 58.8945 59.0286V59.0286C54.5473 58.3493 51.0372 55.1186 50.0006 50.8425L49.7313 49.7315" stroke="#3EE7BC" stroke-width="3"/>
</g>
<path d="M153.929 77.2021L144.597 82.6015C144.124 82.8753 143.958 83.4793 144.226 83.9561C145.887 86.9173 147.032 88.7884 150.243 91.397C153.826 94.3648 156.672 94.982 162.477 95.1705C170.67 95.7393 174.189 94.6416 178.915 90.6423C182.947 86.1191 184.032 83.0057 184.398 76.6801V30.2477C184.398 29.6954 183.95 29.2477 183.398 29.2477H171.887C171.335 29.2477 170.887 29.7009 170.887 30.2532V76.3028C170.809 80.6539 169.765 81.726 167.551 83.0339C167.482 83.0745 167.407 83.107 167.33 83.1294C165.055 83.7958 163.72 83.7854 161.33 83.0951C158.496 81.9297 157.056 80.6672 155.328 77.5972C155.049 77.1018 154.421 76.9174 153.929 77.2021Z" fill="#28293D" stroke="#4854FE"/>
<path d="M232.956 39.774L223.39 45.9398C223.288 46.005 223.176 46.034 223.106 45.9363C222.628 45.2731 220.91 41.8428 216.815 40.7361C212.195 39.4877 210.28 41.201 208.556 44.0574C208.522 44.1151 208.492 44.178 208.47 44.2417C207.414 47.3174 207.8 48.9071 210.68 51.2672C210.739 51.3156 210.805 51.3577 210.874 51.391L223.237 57.4006C229.899 61.168 232.54 63.233 235.264 66.7902C235.304 66.8423 235.34 66.8997 235.368 66.9587C237.466 71.2728 238.095 73.9122 237.591 80.125C236.538 85.8078 234.835 88.4328 230.095 92.1976C230.056 92.2285 230.014 92.2575 229.971 92.2822C225.33 94.9366 222.411 95.7004 216.815 96.032C210.973 96.1985 207.848 95.5268 202.46 93.3808C197.162 90.7236 194.622 88.3666 191.307 83.2681C190.999 82.7948 191.152 82.1607 191.639 81.8746L200.894 76.4351C201.35 76.1674 201.935 76.3028 202.239 76.7346C205.452 81.2942 207.901 82.7955 212.659 83.9124C217.382 84.3836 219.567 84.04 222.04 81.7006C222.082 81.6608 222.121 81.6158 222.155 81.569C224.735 78.0187 225.101 74.8687 222.556 72.6154C222.507 72.5721 222.451 72.5335 222.395 72.5015C215.376 68.5592 210 68.3541 200.633 60.8588C200.593 60.8265 200.553 60.7894 200.518 60.7511C195.96 55.7458 194.093 52.4835 194.905 45.281C195.833 38.6527 197.262 35.8563 201.327 32.4039C205.229 29.4821 208.027 28.5418 214.548 28.6166C221.462 29.1573 223.861 29.812 226.259 31.2678C229.95 34.0868 231.503 35.8783 233.238 38.378C233.558 38.8383 233.427 39.4705 232.956 39.774Z" fill="#28293D" stroke="#4854FE"/>
<defs>
<filter id="filter0_d_402_27" x="5.66895" y="0.900146" width="109.925" height="92.2125" filterUnits="userSpaceOnUse" color-interpolation-filters="sRGB">
<feFlood flood-opacity="0" result="BackgroundImageFix"/>
<feColorMatrix in="SourceAlpha" type="matrix" values="0 0 0 0 0 0 0 0 0 0 0 0 0 0 0 0 0 0 127 0" result="hardAlpha"/>
<feOffset/>
<feGaussianBlur stdDeviation="5"/>
<feComposite in2="hardAlpha" operator="out"/>
<feColorMatrix type="matrix" values="0 0 0 0 0.282353 0 0 0 0 0.329412 0 0 0 0 0.996078 0 0 0 1 0"/>
<feBlend mode="normal" in2="BackgroundImageFix" result="effect1_dropShadow_402_27"/>
<feBlend mode="normal" in="SourceGraphic" in2="effect1_dropShadow_402_27" result="shape"/>
</filter>
<filter id="filter1_d_402_27" x="19.1562" y="20.1" width="41.3936" height="52.6205" filterUnits="userSpaceOnUse" color-interpolation-filters="sRGB">
<feFlood flood-opacity="0" result="BackgroundImageFix"/>
<feColorMatrix in="SourceAlpha" type="matrix" values="0 0 0 0 0 0 0 0 0 0 0 0 0 0 0 0 0 0 127 0" result="hardAlpha"/>
<feOffset/>
<feGaussianBlur stdDeviation="5"/>
<feComposite in2="hardAlpha" operator="out"/>
<feColorMatrix type="matrix" values="0 0 0 0 0.282353 0 0 0 0 0.329412 0 0 0 0 0.996078 0 0 0 1 0"/>
<feBlend mode="normal" in2="BackgroundImageFix" result="effect1_dropShadow_402_27"/>
<feBlend mode="normal" in="SourceGraphic" in2="effect1_dropShadow_402_27" result="shape"/>
</filter>
<filter id="filter2_d_402_27" x="60.7129" y="20.1" width="41.3936" height="52.6205" filterUnits="userSpaceOnUse" color-interpolation-filters="sRGB">
<feFlood flood-opacity="0" result="BackgroundImageFix"/>
<feColorMatrix in="SourceAlpha" type="matrix" values="0 0 0 0 0 0 0 0 0 0 0 0 0 0 0 0 0 0 127 0" result="hardAlpha"/>
<feOffset/>
<feGaussianBlur stdDeviation="5"/>
<feComposite in2="hardAlpha" operator="out"/>
<feColorMatrix type="matrix" values="0 0 0 0 0.282353 0 0 0 0 0.329412 0 0 0 0 0.996078 0 0 0 1 0"/>
<feBlend mode="normal" in2="BackgroundImageFix" result="effect1_dropShadow_402_27"/>
<feBlend mode="normal" in="SourceGraphic" in2="effect1_dropShadow_402_27" result="shape"/>
</filter>
<filter id="filter3_d_402_27" x="38.2734" y="39.2494" width="44.6782" height="31.3959" filterUnits="userSpaceOnUse" color-interpolation-filters="sRGB">
<feFlood flood-opacity="0" result="BackgroundImageFix"/>
<feColorMatrix in="SourceAlpha" type="matrix" values="0 0 0 0 0 0 0 0 0 0 0 0 0 0 0 0 0 0 127 0" result="hardAlpha"/>
<feOffset/>
<feGaussianBlur stdDeviation="5"/>
<feComposite in2="hardAlpha" operator="out"/>
<feColorMatrix type="matrix" values="0 0 0 0 0.282353 0 0 0 0 0.329412 0 0 0 0 0.996078 0 0 0 1 0"/>
<feBlend mode="normal" in2="BackgroundImageFix" result="effect1_dropShadow_402_27"/>
<feBlend mode="normal" in="SourceGraphic" in2="effect1_dropShadow_402_27" result="shape"/>
</filter>
</defs>
</svg>
